#N canvas 252 720 880 403 16;
#X obj 76 47 inlet;
#X obj 76 76 list prepend;
#X obj 76 134 #bubblestream;
#X obj 219 134 #rolling;
#X obj 193 46 r ball_sound;
#X obj 76 105 route 0 1;
#X obj 76 163 *~;
#X obj 76 192 outlet~;
#X obj 219 163 *~;
#X obj 219 192 outlet~;
#X obj 391 87 expr 0 + $i1;
#X obj 241 87 expr 1 - $i1;
#X connect 0 0 1 0;
#X connect 1 0 5 0;
#X connect 2 0 6 0;
#X connect 3 0 8 0;
#X connect 4 0 1 1;
#X connect 4 0 11 0;
#X connect 4 0 10 0;
#X connect 5 0 2 0;
#X connect 5 1 3 0;
#X connect 6 0 7 0;
#X connect 8 0 9 0;
#X connect 10 0 8 1;
#X connect 11 0 6 1;
