#N canvas 1259 290 915 534 16;
#X obj 199 221 *~;
#X obj 328 221 *~;
#X obj 471 194 readsf~;
#X obj 692 162 #cd;
#X obj 280 162 line~ 10;
#X obj 106 52 inlet;
#X obj 67 401 outlet~;
#X obj 144 401 outlet~;
#X obj 602 273 outlet~;
#X obj 375 162 r~ bball;
#X obj 68 341 earplug~;
#X obj 140 162 #ball_select;
#X obj 375 269 r~ paddle_bounce;
#X floatatom 145 306 5 0 0 0 - - -;
#X msg 471 162 open gol.wav \, 1;
#X obj 602 244 *~ 0.5;
#X obj 106 101 routeOSC /pan /speed /depth /gol /cd /radius;
#X obj 642 125 s radius;
#X obj 264 132 * 0.25;
#X connect 0 0 10 0;
#X connect 1 0 10 0;
#X connect 2 0 15 0;
#X connect 3 0 15 0;
#X connect 4 0 1 1;
#X connect 4 0 0 1;
#X connect 5 0 16 0;
#X connect 9 0 1 0;
#X connect 10 0 6 0;
#X connect 10 1 7 0;
#X connect 11 0 0 0;
#X connect 11 1 0 0;
#X connect 12 0 0 0;
#X connect 13 0 10 2;
#X connect 14 0 2 0;
#X connect 15 0 8 0;
#X connect 16 0 10 1;
#X connect 16 1 11 0;
#X connect 16 2 18 0;
#X connect 16 3 14 0;
#X connect 16 4 3 0;
#X connect 16 5 17 0;
#X connect 18 0 4 0;
