#N canvas 1807 699 639 621 16;
#X obj 249 286 *~;
#X msg 27 66 bang;
#X obj 27 217 line~;
#X msg 27 144 1 50;
#X msg 100 179 0 50;
#X obj 100 109 delay 700;
#X obj 27 23 inlet;
#X obj 249 352 outlet~;
#X obj 250 122 moses 3;
#X obj 250 90 f 0;
#X obj 298 91 + 1;
#X obj 250 223 osc~;
#X msg 250 192 440;
#X msg 397 66 0;
#X msg 317 192 880;
#X obj 397 23 r reset;
#X obj 249 315 *~ 0.2;
#X connect 0 0 16 0;
#X connect 1 0 3 0;
#X connect 1 0 5 0;
#X connect 1 0 9 0;
#X connect 2 0 0 1;
#X connect 3 0 2 0;
#X connect 4 0 2 0;
#X connect 5 0 4 0;
#X connect 6 0 1 0;
#X connect 8 0 12 0;
#X connect 8 1 13 0;
#X connect 8 1 14 0;
#X connect 9 0 10 0;
#X connect 9 0 8 0;
#X connect 10 0 9 1;
#X connect 11 0 0 0;
#X connect 12 0 11 0;
#X connect 13 0 9 1;
#X connect 14 0 11 0;
#X connect 15 0 13 0;
#X connect 16 0 7 0;
