#N canvas 1237 850 686 484 16;
#X obj 141 97 r reset;
#X msg 141 171 0;
#X obj 141 201 line 10;
#X obj 53 201 osc~ 150;
#X obj 223 97 loadbang;
#X msg 223 171 1;
#X obj 132 68 r mute0;
#X obj 215 68 r mute1;
#X obj 53 230 *~;
#X obj 53 259 *~;
#X obj 54 324 outlet~;
#X obj 141 236 inlet~;
#X connect 0 0 1 0;
#X connect 1 0 2 0;
#X connect 2 0 8 1;
#X connect 3 0 8 0;
#X connect 4 0 5 0;
#X connect 5 0 2 0;
#X connect 6 0 1 0;
#X connect 7 0 5 0;
#X connect 8 0 9 0;
#X connect 9 0 10 0;
#X connect 11 0 9 1;
