#N canvas 305 291 991 479 16;
#X obj 116 302 *~;
#X obj 204 345 outlet~;
#X obj 117 345 outlet~;
#X obj 115 109 #pan;
#X obj 115 26 inlet;
#X obj 204 302 *~;
#X obj 206 92 *~;
#X obj 361 256 r~ paddle_bound;
#X obj 207 134 *~ 0.5;
#X obj 208 193 #paddle_move0;
#X obj 370 194 #paddle_move1;
#X obj 115 56 routeOSC /pan /volume /note /mode;
#X obj 654 80 moses 1;
#X obj 654 149 s mute1;
#X obj 721 118 s mute0;
#X connect 0 0 2 0;
#X connect 3 0 0 0;
#X connect 3 1 5 0;
#X connect 4 0 11 0;
#X connect 5 0 1 0;
#X connect 6 0 8 0;
#X connect 7 0 0 1;
#X connect 7 0 5 1;
#X connect 8 0 10 1;
#X connect 8 0 9 0;
#X connect 9 0 0 1;
#X connect 9 0 5 1;
#X connect 10 0 0 1;
#X connect 10 0 5 1;
#X connect 11 0 3 0;
#X connect 11 1 6 0;
#X connect 11 1 6 1;
#X connect 11 2 10 0;
#X connect 11 3 12 0;
#X connect 12 0 13 0;
#X connect 12 1 14 0;
