#N canvas 509 845 691 484 16;
#X obj 51 97 inlet;
#X obj 141 97 r reset;
#X msg 141 171 0;
#X obj 223 97 loadbang;
#X msg 223 171 1;
#X obj 51 173 mtof;
#X obj 51 202 osc~;
#X obj 133 67 r mute1;
#X obj 215 67 r mute0;
#X obj 51 231 *~;
#X obj 51 260 *~;
#X obj 51 289 outlet~;
#X obj 141 235 inlet~;
#X obj 141 201 line 200;
#X connect 0 0 4 0;
#X connect 0 0 5 0;
#X connect 1 0 2 0;
#X connect 2 0 13 0;
#X connect 3 0 4 0;
#X connect 4 0 13 0;
#X connect 5 0 6 0;
#X connect 6 0 9 0;
#X connect 7 0 2 0;
#X connect 8 0 4 0;
#X connect 9 0 10 0;
#X connect 10 0 11 0;
#X connect 12 0 10 1;
#X connect 13 0 9 1;
