#N canvas 1721 410 571 528 16;
#X obj 201 52 inlet;
#X obj 168 111 hsl 128 15 0 1 0 0 empty empty empty -2 -8 0 10 -262144
-1 -1 6345 1;
#X obj 255 131 - 1;
#X obj 255 160 abs;
#X obj 255 189 sqrt;
#X obj 165 131 sqrt;
#X obj 331 229 vsl 15 128 0 1 0 0 empty empty empty 0 -9 0 10 -262144
-1 -1 8984 1;
#X obj 331 365 pack 0 10;
#X obj 331 394 line~;
#X obj 93 229 vsl 15 128 0 1 0 0 empty empty empty 0 -9 0 10 -262144
-1 -1 8976 1;
#X obj 93 365 pack 0 10;
#X obj 93 394 line~;
#X obj 331 423 outlet~;
#X obj 93 423 outlet~;
#X connect 0 0 1 0;
#X connect 1 0 5 0;
#X connect 1 0 2 0;
#X connect 2 0 3 0;
#X connect 3 0 4 0;
#X connect 4 0 6 0;
#X connect 5 0 9 0;
#X connect 6 0 7 0;
#X connect 7 0 8 0;
#X connect 8 0 12 0;
#X connect 9 0 10 0;
#X connect 10 0 11 0;
#X connect 11 0 13 0;
