#N canvas 1200 137 1236 629 16;
#X obj 88 15 udpreceive 7000;
#X obj 88 68 unpackOSC;
#X obj 116 474 dac~;
#X msg 1084 527 \; pd dsp 0;
#X msg 966 527 \; pd dsp 1;
#X obj 602 194 s turnoff;
#X obj 288 414 vsl 20 80 0 1 0 0 empty empty empty 0 -9 0 10 -191407
-1 -1 3160 1;
#X obj 116 419 *~;
#X obj 219 421 *~;
#X obj 864 273 s reset;
#X obj 864 212 bng 50 250 50 0 empty empty empty 17 7 0 10 -201419
-258113 -4160;
#X obj 219 384 lop~ 2000;
#X obj 116 383 lop~ 2000;
#X obj 367 422 loadbang;
#X msg 367 451 0.4;
#X obj 210 176 #paddle;
#X obj 765 273 loadbang;
#X obj 115 119 routeOSC /ball /paddle /bounce /audio;
#X obj 321 176 routeOSC /ball /paddle;
#X obj 966 498 loadbang;
#X obj 115 176 #ball;
#X obj 719 194 s ball_sound;
#X obj 321 219 routeOSC /wall /paddle;
#X obj 321 300 #bounce_wall;
#X obj 604 249 #bounce_bound;
#X obj 429 261 #bounce_pad;
#X obj 602 143 routeOSC /start /stop /ball /reset /gameover;
#X msg 951 322 open gameover.wav \, 1;
#X obj 951 351 readsf~;
#X connect 0 0 1 0;
#X connect 1 0 17 0;
#X connect 6 0 7 1;
#X connect 6 0 8 1;
#X connect 7 0 2 0;
#X connect 8 0 2 1;
#X connect 10 0 9 0;
#X connect 11 0 8 0;
#X connect 12 0 7 0;
#X connect 13 0 14 0;
#X connect 14 0 6 0;
#X connect 15 0 12 0;
#X connect 15 1 11 0;
#X connect 16 0 10 0;
#X connect 17 0 20 0;
#X connect 17 1 15 0;
#X connect 17 2 18 0;
#X connect 17 3 26 0;
#X connect 18 0 22 0;
#X connect 18 1 24 0;
#X connect 19 0 4 0;
#X connect 20 0 12 0;
#X connect 20 1 11 0;
#X connect 20 2 7 0;
#X connect 20 2 8 0;
#X connect 22 0 23 0;
#X connect 22 1 25 0;
#X connect 26 0 5 0;
#X connect 26 1 5 0;
#X connect 26 2 21 0;
#X connect 26 3 10 0;
#X connect 26 4 27 0;
#X connect 27 0 28 0;
#X connect 28 0 7 0;
#X connect 28 0 8 0;
